<svg xmlns="http://www.w3.org/2000/svg" version="1.1" xmlns:xlink="http://www.w3.org/1999/xlink" xmlns:svgjs="http://svgjs.com/svgjs" width="1440" height="560" preserveAspectRatio="none" viewBox="0 0 1440 560"><g mask="url(&quot;#SvgjsMask1000&quot;)" fill="none"><rect width="1440" height="560" x="0" y="0" fill="#0e2a47"></rect><path d="M1269.43 55.9L1303.56 55.9L1303.56 76.67L1269.43 76.67z" fill="#037b0b"></path><path d="M1030.26 554.53 a46.85 46.85 0 1 0 93.7 0 a46.85 46.85 0 1 0 -93.7 0z" fill="#d3b714"></path><path d="M273.5 559.66L303.37 559.66L303.37 589.53L273.5 589.53z" fill="#e73635"></path><path d="M677.11 491.93L683.74 491.93L683.74 498.56L677.11 498.56z" stroke="#e73635"></path><path d="M638.49 474.49 a55.73 55.73 0 1 0 111.46 0 a55.73 55.73 0 1 0 -111.46 0z" fill="#e73635"></path><path d="M785.11 481.2 a50.77 50.77 0 1 0 101.54 0 a50.77 50.77 0 1 0 -101.54 0z" stroke="#037b0b"></path><path d="M310.3 502.15 a55.59 55.59 0 1 0 111.18 0 a55.59 55.59 0 1 0 -111.18 0z" fill="#037b0b"></path><path d="M836.78 105.72a26.57 26.57 0 1 0-35.74-39.32z" fill="#037b0b"></path><path d="M30.71 346.76a17.72 17.72 0 1 0-22.46-27.41z" fill="#e73635"></path><path d="M444.31 140.38L491.52 140.38L491.52 188.84L444.31 188.84z" fill="#e73635"></path><path d="M1308.12 148.92L1334.35 148.92L1334.35 172.59L1308.12 172.59z" stroke="#d3b714"></path><path d="M90.43 176.48a22.69 22.69 0 1 0-30.04-34.01z" fill="#e73635"></path><path d="M608.54 258.69 a41.28 41.28 0 1 0 82.56 0 a41.28 41.28 0 1 0 -82.56 0z" fill="#d3b714"></path><path d="M1298.38 48.01a26.12 26.12 0 1 0-40.3-33.25z" stroke="#d3b714"></path><path d="M1169.7 237.19L1184.58 237.19L1184.58 272.45L1169.7 272.45z" stroke="#d3b714"></path><path d="M982.17 548.2L1033.65 548.2L1033.65 550.03L982.17 550.03z" fill="#d3b714"></path><path d="M171.59 17.77a21.83 21.83 0 1 0-28.48-33.09z" stroke="#e73635"></path><path d="M553.11 513.24L599.75 513.24L599.75 559.88L553.11 559.88z" fill="#d3b714"></path><path d="M-0.65 213.27 a43.62 43.62 0 1 0 87.24 0 a43.62 43.62 0 1 0 -87.24 0z" fill="#d3b714"></path><path d="M10.68 364.64L16.57 364.64L16.57 413.76L10.68 413.76z" fill="#037b0b"></path><path d="M1364.92 154.07 a25.78 25.78 0 1 0 51.56 0 a25.78 25.78 0 1 0 -51.56 0z" fill="#037b0b"></path><path d="M776.86 63.05a8.9 8.9 0 1 0-7.96 15.91z" stroke="#e73635"></path><path d="M349.17 277.98L382.1 277.98L382.1 310.91L349.17 310.91z" fill="#037b0b"></path><path d="M287.85 179.95a16.81 16.81 0 1 0 16.44-29.32z" fill="#e73635"></path><path d="M226.34 486.29a30.01 30.01 0 1 0 13.07 58.58z" fill="#e73635"></path><path d="M1073.07 217.4a32 32 0 1 0-61.39-18.09z" fill="#e73635"></path><path d="M248.53 162.55L282.12 162.55L282.12 196.14L248.53 196.14z" stroke="#037b0b"></path><path d="M821.83 488.92a43.08 43.08 0 1 0 57.2-64.44z" fill="#e73635"></path><path d="M1324.5 475.43 a43.07 43.07 0 1 0 86.14 0 a43.07 43.07 0 1 0 -86.14 0z" fill="#e73635"></path><path d="M1269.73 506.49a28.01 28.01 0 1 0 30.54 46.96z" stroke="#037b0b"></path><path d="M710.64 440.59L750.8 440.59L750.8 480.75L710.64 480.75z" stroke="#e73635"></path><path d="M1423.56 30.43L1434.1 30.43L1434.1 61.3L1423.56 61.3z" stroke="#d3b714"></path><path d="M394.04 477.75L410.49 477.75L410.49 533.33L394.04 533.33z" stroke="#d3b714"></path></g><defs><mask id="SvgjsMask1000"><rect width="1440" height="560" fill="#ffffff"></rect></mask></defs></svg>