<svg xmlns="http://www.w3.org/2000/svg" version="1.1" xmlns:xlink="http://www.w3.org/1999/xlink" xmlns:svgjs="http://svgjs.com/svgjs" width="1440" height="560" preserveAspectRatio="none" viewBox="0 0 1440 560"><g mask="url(&quot;#SvgjsMask1027&quot;)" fill="none"><rect width="1440" height="560" x="0" y="0" fill="rgba(33, 85, 139, 1)"></rect><path d="M249.17 506.2L310.66 541.7L310.66 612.7L249.17 648.2L187.68 612.7L187.68 541.7zM372.15 80.2L433.64 115.7L433.64 186.7L372.15 222.2L310.66 186.7L310.66 115.7zM310.66 399.7L372.15 435.2L372.15 506.2L310.66 541.7L249.17 506.2L249.17 435.2zM495.13 506.2L556.62 541.7L556.62 612.7L495.13 648.2L433.64 612.7L433.64 541.7zM741.09 80.2L802.57 115.7L802.57 186.7L741.09 222.2L679.6 186.7L679.6 115.7zM741.09 293.2L802.57 328.7L802.57 399.7L741.09 435.2L679.6 399.7L679.6 328.7zM802.57 186.7L864.06 222.2L864.06 293.2L802.57 328.7L741.09 293.2L741.09 222.2zM987.04 293.2L1048.53 328.7L1048.53 399.7L987.04 435.2L925.55 399.7L925.55 328.7zM987.04 506.2L1048.53 541.7L1048.53 612.7L987.04 648.2L925.55 612.7L925.55 541.7zM1110.02 80.2L1171.51 115.7L1171.51 186.7L1110.02 222.2L1048.53 186.7L1048.53 115.7zM1417.47 -26.3L1478.96 9.2L1478.96 80.2L1417.47 115.7L1355.98 80.2L1355.98 9.2zM1417.47 399.7L1478.96 435.2L1478.96 506.2L1417.47 541.7L1355.98 506.2L1355.98 435.2zM1478.96 506.2L1540.45 541.7L1540.45 612.7L1478.96 648.2L1417.47 612.7L1417.47 541.7z" stroke="#03305d" stroke-width="2"></path><path d="M242.07 506.2 a7.1 7.1 0 1 0 14.2 0 a7.1 7.1 0 1 0 -14.2 0zM303.56 541.7 a7.1 7.1 0 1 0 14.2 0 a7.1 7.1 0 1 0 -14.2 0zM303.56 612.7 a7.1 7.1 0 1 0 14.2 0 a7.1 7.1 0 1 0 -14.2 0zM242.07 648.2 a7.1 7.1 0 1 0 14.2 0 a7.1 7.1 0 1 0 -14.2 0zM180.58 612.7 a7.1 7.1 0 1 0 14.2 0 a7.1 7.1 0 1 0 -14.2 0zM180.58 541.7 a7.1 7.1 0 1 0 14.2 0 a7.1 7.1 0 1 0 -14.2 0zM365.05 80.2 a7.1 7.1 0 1 0 14.2 0 a7.1 7.1 0 1 0 -14.2 0zM426.54 115.7 a7.1 7.1 0 1 0 14.2 0 a7.1 7.1 0 1 0 -14.2 0zM426.54 186.7 a7.1 7.1 0 1 0 14.2 0 a7.1 7.1 0 1 0 -14.2 0zM365.05 222.2 a7.1 7.1 0 1 0 14.2 0 a7.1 7.1 0 1 0 -14.2 0zM303.56 186.7 a7.1 7.1 0 1 0 14.2 0 a7.1 7.1 0 1 0 -14.2 0zM303.56 115.7 a7.1 7.1 0 1 0 14.2 0 a7.1 7.1 0 1 0 -14.2 0zM303.56 399.7 a7.1 7.1 0 1 0 14.2 0 a7.1 7.1 0 1 0 -14.2 0zM365.05 435.2 a7.1 7.1 0 1 0 14.2 0 a7.1 7.1 0 1 0 -14.2 0zM365.05 506.2 a7.1 7.1 0 1 0 14.2 0 a7.1 7.1 0 1 0 -14.2 0zM242.07 435.2 a7.1 7.1 0 1 0 14.2 0 a7.1 7.1 0 1 0 -14.2 0zM488.03 506.2 a7.1 7.1 0 1 0 14.2 0 a7.1 7.1 0 1 0 -14.2 0zM549.52 541.7 a7.1 7.1 0 1 0 14.2 0 a7.1 7.1 0 1 0 -14.2 0zM549.52 612.7 a7.1 7.1 0 1 0 14.2 0 a7.1 7.1 0 1 0 -14.2 0zM488.03 648.2 a7.1 7.1 0 1 0 14.2 0 a7.1 7.1 0 1 0 -14.2 0zM426.54 612.7 a7.1 7.1 0 1 0 14.2 0 a7.1 7.1 0 1 0 -14.2 0zM426.54 541.7 a7.1 7.1 0 1 0 14.2 0 a7.1 7.1 0 1 0 -14.2 0zM733.99 80.2 a7.1 7.1 0 1 0 14.2 0 a7.1 7.1 0 1 0 -14.2 0zM795.47 115.7 a7.1 7.1 0 1 0 14.2 0 a7.1 7.1 0 1 0 -14.2 0zM795.47 186.7 a7.1 7.1 0 1 0 14.2 0 a7.1 7.1 0 1 0 -14.2 0zM733.99 222.2 a7.1 7.1 0 1 0 14.2 0 a7.1 7.1 0 1 0 -14.2 0zM672.5 186.7 a7.1 7.1 0 1 0 14.2 0 a7.1 7.1 0 1 0 -14.2 0zM672.5 115.7 a7.1 7.1 0 1 0 14.2 0 a7.1 7.1 0 1 0 -14.2 0zM733.99 293.2 a7.1 7.1 0 1 0 14.2 0 a7.1 7.1 0 1 0 -14.2 0zM795.47 328.7 a7.1 7.1 0 1 0 14.2 0 a7.1 7.1 0 1 0 -14.2 0zM795.47 399.7 a7.1 7.1 0 1 0 14.2 0 a7.1 7.1 0 1 0 -14.2 0zM733.99 435.2 a7.1 7.1 0 1 0 14.2 0 a7.1 7.1 0 1 0 -14.2 0zM672.5 399.7 a7.1 7.1 0 1 0 14.2 0 a7.1 7.1 0 1 0 -14.2 0zM672.5 328.7 a7.1 7.1 0 1 0 14.2 0 a7.1 7.1 0 1 0 -14.2 0zM856.96 222.2 a7.1 7.1 0 1 0 14.2 0 a7.1 7.1 0 1 0 -14.2 0zM856.96 293.2 a7.1 7.1 0 1 0 14.2 0 a7.1 7.1 0 1 0 -14.2 0zM979.94 293.2 a7.1 7.1 0 1 0 14.2 0 a7.1 7.1 0 1 0 -14.2 0zM1041.43 328.7 a7.1 7.1 0 1 0 14.2 0 a7.1 7.1 0 1 0 -14.2 0zM1041.43 399.7 a7.1 7.1 0 1 0 14.2 0 a7.1 7.1 0 1 0 -14.2 0zM979.94 435.2 a7.1 7.1 0 1 0 14.2 0 a7.1 7.1 0 1 0 -14.2 0zM918.45 399.7 a7.1 7.1 0 1 0 14.2 0 a7.1 7.1 0 1 0 -14.2 0zM918.45 328.7 a7.1 7.1 0 1 0 14.2 0 a7.1 7.1 0 1 0 -14.2 0zM979.94 506.2 a7.1 7.1 0 1 0 14.2 0 a7.1 7.1 0 1 0 -14.2 0zM1041.43 541.7 a7.1 7.1 0 1 0 14.2 0 a7.1 7.1 0 1 0 -14.2 0zM1041.43 612.7 a7.1 7.1 0 1 0 14.2 0 a7.1 7.1 0 1 0 -14.2 0zM979.94 648.2 a7.1 7.1 0 1 0 14.2 0 a7.1 7.1 0 1 0 -14.2 0zM918.45 612.7 a7.1 7.1 0 1 0 14.2 0 a7.1 7.1 0 1 0 -14.2 0zM918.45 541.7 a7.1 7.1 0 1 0 14.2 0 a7.1 7.1 0 1 0 -14.2 0zM1102.92 80.2 a7.1 7.1 0 1 0 14.2 0 a7.1 7.1 0 1 0 -14.2 0zM1164.41 115.7 a7.1 7.1 0 1 0 14.2 0 a7.1 7.1 0 1 0 -14.2 0zM1164.41 186.7 a7.1 7.1 0 1 0 14.2 0 a7.1 7.1 0 1 0 -14.2 0zM1102.92 222.2 a7.1 7.1 0 1 0 14.2 0 a7.1 7.1 0 1 0 -14.2 0zM1041.43 186.7 a7.1 7.1 0 1 0 14.2 0 a7.1 7.1 0 1 0 -14.2 0zM1041.43 115.7 a7.1 7.1 0 1 0 14.2 0 a7.1 7.1 0 1 0 -14.2 0zM1410.37 -26.3 a7.1 7.1 0 1 0 14.2 0 a7.1 7.1 0 1 0 -14.2 0zM1471.86 9.2 a7.1 7.1 0 1 0 14.2 0 a7.1 7.1 0 1 0 -14.2 0zM1471.86 80.2 a7.1 7.1 0 1 0 14.2 0 a7.1 7.1 0 1 0 -14.2 0zM1410.37 115.7 a7.1 7.1 0 1 0 14.2 0 a7.1 7.1 0 1 0 -14.2 0zM1348.88 80.2 a7.1 7.1 0 1 0 14.2 0 a7.1 7.1 0 1 0 -14.2 0zM1348.88 9.2 a7.1 7.1 0 1 0 14.2 0 a7.1 7.1 0 1 0 -14.2 0zM1410.37 399.7 a7.1 7.1 0 1 0 14.2 0 a7.1 7.1 0 1 0 -14.2 0zM1471.86 435.2 a7.1 7.1 0 1 0 14.2 0 a7.1 7.1 0 1 0 -14.2 0zM1471.86 506.2 a7.1 7.1 0 1 0 14.2 0 a7.1 7.1 0 1 0 -14.2 0zM1410.37 541.7 a7.1 7.1 0 1 0 14.2 0 a7.1 7.1 0 1 0 -14.2 0zM1348.88 506.2 a7.1 7.1 0 1 0 14.2 0 a7.1 7.1 0 1 0 -14.2 0zM1348.88 435.2 a7.1 7.1 0 1 0 14.2 0 a7.1 7.1 0 1 0 -14.2 0zM1533.35 541.7 a7.1 7.1 0 1 0 14.2 0 a7.1 7.1 0 1 0 -14.2 0zM1533.35 612.7 a7.1 7.1 0 1 0 14.2 0 a7.1 7.1 0 1 0 -14.2 0zM1471.86 648.2 a7.1 7.1 0 1 0 14.2 0 a7.1 7.1 0 1 0 -14.2 0zM1410.37 612.7 a7.1 7.1 0 1 0 14.2 0 a7.1 7.1 0 1 0 -14.2 0z" fill="#03305d"></path><path d="M24.56 405.79L67.86 430.79L67.86 480.79L24.56 505.79L-18.74 480.79L-18.74 430.79zM154.47 330.79L197.77 355.79L197.77 405.79L154.47 430.79L111.17 405.79L111.17 355.79zM154.47 480.79L197.77 505.79L197.77 555.79L154.47 580.79L111.17 555.79L111.17 505.79zM241.07 30.79L284.38 55.79L284.38 105.79L241.07 130.79L197.77 105.79L197.77 55.79zM241.07 180.79L284.38 205.79L284.38 255.79L241.07 280.79L197.77 255.79L197.77 205.79zM241.07 330.79L284.38 355.79L284.38 405.79L241.07 430.79L197.77 405.79L197.77 355.79zM241.07 480.79L284.38 505.79L284.38 555.79L241.07 580.79L197.77 555.79L197.77 505.79zM327.68 30.79L370.98 55.79L370.98 105.79L327.68 130.79L284.38 105.79L284.38 55.79zM284.38 105.79L327.68 130.79L327.68 180.79L284.38 205.79L241.07 180.79L241.07 130.79zM327.68 180.79L370.98 205.79L370.98 255.79L327.68 280.79L284.38 255.79L284.38 205.79zM284.38 255.79L327.68 280.79L327.68 330.79L284.38 355.79L241.07 330.79L241.07 280.79zM327.68 330.79L370.98 355.79L370.98 405.79L327.68 430.79L284.38 405.79L284.38 355.79zM414.28 330.79L457.59 355.79L457.59 405.79L414.28 430.79L370.98 405.79L370.98 355.79zM414.28 480.79L457.59 505.79L457.59 555.79L414.28 580.79L370.98 555.79L370.98 505.79zM457.59 105.79L500.89 130.79L500.89 180.79L457.59 205.79L414.28 180.79L414.28 130.79zM500.89 180.79L544.19 205.79L544.19 255.79L500.89 280.79L457.59 255.79L457.59 205.79zM500.89 480.79L544.19 505.79L544.19 555.79L500.89 580.79L457.59 555.79L457.59 505.79zM587.49 330.79L630.79 355.79L630.79 405.79L587.49 430.79L544.19 405.79L544.19 355.79zM674.1 30.79L717.4 55.79L717.4 105.79L674.1 130.79L630.79 105.79L630.79 55.79zM630.79 105.79L674.1 130.79L674.1 180.79L630.79 205.79L587.49 180.79L587.49 130.79zM630.79 255.79L674.1 280.79L674.1 330.79L630.79 355.79L587.49 330.79L587.49 280.79zM630.79 405.79L674.1 430.79L674.1 480.79L630.79 505.79L587.49 480.79L587.49 430.79zM717.4 -44.21L760.7 -19.21L760.7 30.79L717.4 55.79L674.1 30.79L674.1 -19.21zM760.7 30.79L804 55.79L804 105.79L760.7 130.79L717.4 105.79L717.4 55.79zM717.4 405.79L760.7 430.79L760.7 480.79L717.4 505.79L674.1 480.79L674.1 430.79zM847.31 330.79L890.61 355.79L890.61 405.79L847.31 430.79L804 405.79L804 355.79zM890.61 255.79L933.91 280.79L933.91 330.79L890.61 355.79L847.31 330.79L847.31 280.79zM977.22 -44.21L1020.52 -19.21L1020.52 30.79L977.22 55.79L933.91 30.79L933.91 -19.21zM1020.52 30.79L1063.82 55.79L1063.82 105.79L1020.52 130.79L977.22 105.79L977.22 55.79zM977.22 255.79L1020.52 280.79L1020.52 330.79L977.22 355.79L933.91 330.79L933.91 280.79zM977.22 405.79L1020.52 430.79L1020.52 480.79L977.22 505.79L933.91 480.79L933.91 430.79zM1020.52 480.79L1063.82 505.79L1063.82 555.79L1020.52 580.79L977.22 555.79L977.22 505.79zM1063.82 105.79L1107.12 130.79L1107.12 180.79L1063.82 205.79L1020.52 180.79L1020.52 130.79zM1107.12 330.79L1150.42 355.79L1150.42 405.79L1107.12 430.79L1063.82 405.79L1063.82 355.79zM1107.12 480.79L1150.42 505.79L1150.42 555.79L1107.12 580.79L1063.82 555.79L1063.82 505.79zM1193.73 480.79L1237.03 505.79L1237.03 555.79L1193.73 580.79L1150.42 555.79L1150.42 505.79zM1237.03 105.79L1280.33 130.79L1280.33 180.79L1237.03 205.79L1193.73 180.79L1193.73 130.79zM1237.03 255.79L1280.33 280.79L1280.33 330.79L1237.03 355.79L1193.73 330.79L1193.73 280.79zM1366.94 30.79L1410.24 55.79L1410.24 105.79L1366.94 130.79L1323.63 105.79L1323.63 55.79zM1366.94 330.79L1410.24 355.79L1410.24 405.79L1366.94 430.79L1323.63 405.79L1323.63 355.79zM1323.63 405.79L1366.94 430.79L1366.94 480.79L1323.63 505.79L1280.33 480.79L1280.33 430.79zM1410.24 -44.21L1453.54 -19.21L1453.54 30.79L1410.24 55.79L1366.94 30.79L1366.94 -19.21zM1410.24 105.79L1453.54 130.79L1453.54 180.79L1410.24 205.79L1366.94 180.79L1366.94 130.79zM1453.54 180.79L1496.85 205.79L1496.85 255.79L1453.54 280.79L1410.24 255.79L1410.24 205.79z" stroke="rgba(13, 132, 255, 0.93)" stroke-width="2"></path></g><defs><mask id="SvgjsMask1027"><rect width="1440" height="560" fill="#ffffff"></rect></mask></defs></svg>