<svg xmlns="http://www.w3.org/2000/svg" version="1.1" xmlns:xlink="http://www.w3.org/1999/xlink" xmlns:svgjs="http://svgjs.com/svgjs" width="1440" height="560" preserveAspectRatio="none" viewBox="0 0 1440 560"><g mask="url(&quot;#SvgjsMask1031&quot;)" fill="none"><rect width="1440" height="560" x="0" y="0" fill="rgba(8, 17, 25, 1)"></rect><path d="M 0,135 C 26.2,215.6 78.6,551.8 131,538 C 183.4,524.2 209.6,106.4 262,66 C 314.4,25.6 340.6,301.4 393,336 C 445.4,370.6 471.6,201.6 524,239 C 576.4,276.4 602.6,530.4 655,523 C 707.4,515.6 733.6,230 786,202 C 838.4,174 864.6,421.2 917,383 C 969.4,344.8 995.6,-23.2 1048,11 C 1100.4,45.2 1126.6,533.4 1179,554 C 1231.4,574.6 1257.8,114.8 1310,114 C 1362.2,113.2 1414,462.8 1440,550L1440 560L0 560z" fill="rgba(16, 71, 205, 1)"></path><path d="M 0,450 C 41.2,375.4 123.6,87.4 206,77 C 288.4,66.6 329.6,385.8 412,398 C 494.4,410.2 535.6,128 618,138 C 700.4,148 741.6,466.2 824,448 C 906.4,429.8 947.6,54 1030,47 C 1112.4,40 1154,422.4 1236,413 C 1318,403.6 1399.2,82.6 1440,0L1440 560L0 560z" fill="rgba(54, 109, 169, 1)"></path></g><defs><mask id="SvgjsMask1031"><rect width="1440" height="560" fill="#ffffff"></rect></mask></defs></svg>