<svg xmlns="http://www.w3.org/2000/svg" version="1.1" xmlns:xlink="http://www.w3.org/1999/xlink" xmlns:svgjs="http://svgjs.com/svgjs" width="1440" height="560" preserveAspectRatio="none" viewBox="0 0 1440 560"><g mask="url(&quot;#SvgjsMask1034&quot;)" fill="none"><rect width="1440" height="560" x="0" y="0" fill="rgba(52, 53, 52, 1)"></rect><path d="M0 481.32L10 423.94L20 480.06L30 441.63L40 463.43L50 394.11L60 432.47L70 393.99L80 448.47L90 447.63L100 428.92L110 455.7L120 504.12L130 502.99L140 461.53L150 452.49L160 429.96L170 457.39L180 438.99L190 441.23L200 425.32L210 437.92L220 444.73L230 412.65L240 358.55L250 308.44L260 289.91L270 224.61L280 283.87L290 338.66L300 387.98L310 439.27L320 389.3L330 363.34L340 359.78L350 408.17L360 381.06L370 438.37L380 440.12L390 479.21L400 410.28L410 371.34L420 360.97L430 400.58L440 410.61L450 465.53L460 413.69L470 363.15L480 414.35L490 467.6L500 531.35L510 485.54L520 521.29L530 508.57L540 526.71L550 476.66L560 527.81L570 474L580 540.21L590 492.87L600 457.33L610 524.89L620 503.41L630 449.5L640 474.42L650 447.8L660 438.02L670 391.43L680 420.13L690 427.09L700 413.47L710 393.92L720 352.19L730 409.47L740 447.93L750 458.9L760 441.52L770 474.19L780 492.59L790 455.45L800 439.41L810 462.14L820 490.34L830 504.67L840 474.27L850 536.67L860 484.64L870 426.05L880 455.74L890 513.15L900 559.28L910 525.18L920 520.81L930 485.95L940 427.68L950 452.28L960 446.6L970 474.53L980 502.56L990 459.41L1000 429.98L1010 465.9L1020 398.88L1030 414.06L1040 474.97L1050 410.68L1060 407.12L1070 366.53L1080 400.53L1090 424.46L1100 441.25L1110 468.88L1120 448.88L1130 380.97L1140 438.54L1150 384.96L1160 320.51L1170 335.9L1180 310.15L1190 314.17L1200 366.85L1210 410.58L1220 473.07L1230 504.11L1240 497.49L1250 489.58L1260 431.7L1270 475.91L1280 446.91L1290 377.91L1300 446.98L1310 468.79L1320 512.07L1330 550L1340 534.54L1350 551.1L1360 494.51L1370 471.86L1380 434.15L1390 364.32L1400 303.13L1410 341.32L1420 334.22L1430 374.13L1440 317.69" stroke="rgba(15, 157, 88, 1)" stroke-width="2"></path><path d="M0 481.32L10 423.94L20 480.06L30 441.63L40 463.43L50 394.11L60 432.47L70 393.99L80 448.47L90 447.63L100 428.92L110 455.7L120 504.12L130 502.99L140 461.53L150 452.49L160 429.96L170 457.39L180 438.99L190 441.23L200 425.32L210 437.92L220 444.73L230 412.65L240 358.55L250 308.44L260 289.91L270 224.61L280 283.87L290 338.66L300 387.98L310 439.27L320 389.3L330 363.34L340 359.78L350 408.17L360 381.06L370 438.37L380 440.12L390 479.21L400 410.28L410 371.34L420 360.97L430 400.58L440 410.61L450 465.53L460 413.69L470 363.15L480 414.35L490 467.6L500 531.35L510 485.54L520 521.29L530 508.57L540 526.71L550 476.66L560 527.81L570 474L580 540.21L590 492.87L600 457.33L610 524.89L620 503.41L630 449.5L640 474.42L650 447.8L660 438.02L670 391.43L680 420.13L690 427.09L700 413.47L710 393.92L720 352.19L730 409.47L740 447.93L750 458.9L760 441.52L770 474.19L780 492.59L790 455.45L800 439.41L810 462.14L820 490.34L830 504.67L840 474.27L850 536.67L860 484.64L870 426.05L880 455.74L890 513.15L900 559.28L910 525.18L920 520.81L930 485.95L940 427.68L950 452.28L960 446.6L970 474.53L980 502.56L990 459.41L1000 429.98L1010 465.9L1020 398.88L1030 414.06L1040 474.97L1050 410.68L1060 407.12L1070 366.53L1080 400.53L1090 424.46L1100 441.25L1110 468.88L1120 448.88L1130 380.97L1140 438.54L1150 384.96L1160 320.51L1170 335.9L1180 310.15L1190 314.17L1200 366.85L1210 410.58L1220 473.07L1230 504.11L1240 497.49L1250 489.58L1260 431.7L1270 475.91L1280 446.91L1290 377.91L1300 446.98L1310 468.79L1320 512.07L1330 550L1340 534.54L1350 551.1L1360 494.51L1370 471.86L1380 434.15L1390 364.32L1400 303.13L1410 341.32L1420 334.22L1430 374.13L1440 317.69L1440 560L0 560z" fill="url(#SvgjsLinearGradient1035)"></path></g><defs><mask id="SvgjsMask1034"><rect width="1440" height="560" fill="#ffffff"></rect></mask><linearGradient x1="50%" y1="0%" x2="50%" y2="100%" id="SvgjsLinearGradient1035"><stop stop-opacity="0.65" stop-color="rgba(15, 157, 88, 1)" offset="0"></stop><stop stop-opacity="0" stop-color="#55efa4" offset="0.8"></stop></linearGradient></defs></svg>