<svg xmlns="http://www.w3.org/2000/svg" version="1.1" xmlns:xlink="http://www.w3.org/1999/xlink" xmlns:svgjs="http://svgjs.com/svgjs" width="1440" height="560" preserveAspectRatio="none" viewBox="0 0 1440 560"><g mask="url(&quot;#SvgjsMask1003&quot;)" fill="none"><rect width="1440" height="560" x="0" y="0" fill="rgba(14, 155, 64, 1)"></rect><path d="M198.79 486.41L198.79 488.74L204.93 488.74L204.93 486.41zM200.8 487.58 a4.13 4.13 0 1 0 8.26 0 a4.13 4.13 0 1 0 -8.26 0zM195.85 503.52L194.96 505.67L214.69 513.85L215.58 511.7zM211.01 512.77 a4.13 4.13 0 1 0 8.26 0 a4.13 4.13 0 1 0 -8.26 0zM186.58 518.21L184.94 519.85L191.7 526.62L193.35 524.97zM188.4 525.8 a4.13 4.13 0 1 0 8.26 0 a4.13 4.13 0 1 0 -8.26 0zM172.41 528.23L170.25 529.12L175.31 541.33L177.47 540.44zM172.26 540.88 a4.13 4.13 0 1 0 8.26 0 a4.13 4.13 0 1 0 -8.26 0zM155.47 532.06L153.14 532.06L153.14 542.57L155.47 542.57zM150.18 542.57 a4.13 4.13 0 1 0 8.26 0 a4.13 4.13 0 1 0 -8.26 0zM138.36 529.12L136.21 528.23L133.39 535.04L135.54 535.93zM130.33 535.49 a4.13 4.13 0 1 0 8.26 0 a4.13 4.13 0 1 0 -8.26 0zM123.68 519.85L122.03 518.21L110.86 529.38L112.51 531.02zM107.55 530.2 a4.13 4.13 0 1 0 8.26 0 a4.13 4.13 0 1 0 -8.26 0zM113.66 505.67L112.77 503.52L100.6 508.56L101.49 510.71zM96.92 509.64 a4.13 4.13 0 1 0 8.26 0 a4.13 4.13 0 1 0 -8.26 0zM109.83 488.74L109.83 486.41L88.43 486.41L88.43 488.74zM84.3 487.58 a4.13 4.13 0 1 0 8.26 0 a4.13 4.13 0 1 0 -8.26 0zM112.77 471.63L113.66 469.48L96.24 462.26L95.35 464.42zM91.67 463.34 a4.13 4.13 0 1 0 8.26 0 a4.13 4.13 0 1 0 -8.26 0zM122.03 456.95L123.68 455.3L117.36 448.99L115.72 450.63zM112.41 449.81 a4.13 4.13 0 1 0 8.26 0 a4.13 4.13 0 1 0 -8.26 0zM136.21 446.93L138.36 446.04L131.24 428.85L129.09 429.74zM126.04 429.3 a4.13 4.13 0 1 0 8.26 0 a4.13 4.13 0 1 0 -8.26 0zM153.14 443.1L155.47 443.1L155.47 427.94L153.14 427.94zM150.18 427.94 a4.13 4.13 0 1 0 8.26 0 a4.13 4.13 0 1 0 -8.26 0zM170.25 446.04L172.41 446.93L178.44 432.36L176.29 431.47zM173.23 431.91 a4.13 4.13 0 1 0 8.26 0 a4.13 4.13 0 1 0 -8.26 0zM184.94 455.3L186.58 456.95L191.02 452.51L189.38 450.86zM186.07 451.68 a4.13 4.13 0 1 0 8.26 0 a4.13 4.13 0 1 0 -8.26 0zM194.96 469.48L195.85 471.63L208.63 466.33L207.74 464.18zM204.06 465.26 a4.13 4.13 0 1 0 8.26 0 a4.13 4.13 0 1 0 -8.26 0zM109.81 487.58 a44.5 44.5 0 1 0 89 0 a44.5 44.5 0 1 0 -89 0z" fill="rgba(187, 65, 65, 1)"></path><path d="M120.21 516.16 A43.496 43.496 0 0 1 146.51 443.77M146.51 443.77 A88.992 88.992 0 0 0 120.21 516.16" fill="#963434" fill-rule="nonzero"></path><path d="M153.49 463.07 a8.9 8.9 0 1 0 17.8 0 a8.9 8.9 0 1 0 -17.8 0zM121.81 459.44 a4.89 4.89 0 1 0 9.78 0 a4.89 4.89 0 1 0 -9.78 0zM133.72 498.56 a8.9 8.9 0 1 0 17.8 0 a8.9 8.9 0 1 0 -17.8 0zM170.49 495.98 a8.9 8.9 0 1 0 17.8 0 a8.9 8.9 0 1 0 -17.8 0zM142.79 478.73 a1.78 1.78 0 1 0 3.56 0 a1.78 1.78 0 1 0 -3.56 0zM111.33 478.29 a4.45 4.45 0 1 0 8.9 0 a4.45 4.45 0 1 0 -8.9 0zM162.01 520.26 a8.01 8.01 0 1 0 16.02 0 a8.01 8.01 0 1 0 -16.02 0zM137.35 521.48 a4.89 4.89 0 1 0 9.78 0 a4.89 4.89 0 1 0 -9.78 0zM178.51 472.07 a6.23 6.23 0 1 0 12.46 0 a6.23 6.23 0 1 0 -12.46 0zM140.78 452.64 a3.11 3.11 0 1 0 6.22 0 a3.11 3.11 0 1 0 -6.22 0z" fill="#963434" fill-rule="nonzero"></path><path d="M420.41 492.18L420.41 494.05L436.32 494.05L436.32 492.18zM433.02 493.12 a3.3 3.3 0 1 0 6.6 0 a3.3 3.3 0 1 0 -6.6 0zM418.05 505.87L417.34 507.59L423.82 510.28L424.53 508.55zM420.87 509.42 a3.3 3.3 0 1 0 6.6 0 a3.3 3.3 0 1 0 -6.6 0zM410.64 517.62L409.33 518.94L412.94 522.55L414.26 521.23zM410.3 521.89 a3.3 3.3 0 1 0 6.6 0 a3.3 3.3 0 1 0 -6.6 0zM399.3 525.63L397.58 526.35L400.72 533.93L402.44 533.22zM398.28 533.58 a3.3 3.3 0 1 0 6.6 0 a3.3 3.3 0 1 0 -6.6 0zM385.75 528.7L383.89 528.7L383.89 544.91L385.75 544.91zM381.52 544.91 a3.3 3.3 0 1 0 6.6 0 a3.3 3.3 0 1 0 -6.6 0zM372.07 526.35L370.34 525.63L364.31 540.2L366.03 540.92zM361.87 540.56 a3.3 3.3 0 1 0 6.6 0 a3.3 3.3 0 1 0 -6.6 0zM360.32 518.94L359 517.62L352.86 523.76L354.17 525.08zM350.21 524.42 a3.3 3.3 0 1 0 6.6 0 a3.3 3.3 0 1 0 -6.6 0zM352.3 507.59L351.59 505.87L338.44 511.32L339.16 513.04zM335.5 512.18 a3.3 3.3 0 1 0 6.6 0 a3.3 3.3 0 1 0 -6.6 0zM349.24 494.05L349.24 492.18L336.01 492.18L336.01 494.05zM332.71 493.12 a3.3 3.3 0 1 0 6.6 0 a3.3 3.3 0 1 0 -6.6 0zM351.59 480.36L352.3 478.64L338.88 473.08L338.17 474.8zM335.22 473.94 a3.3 3.3 0 1 0 6.6 0 a3.3 3.3 0 1 0 -6.6 0zM359 468.61L360.32 467.29L349.56 456.54L348.25 457.86zM345.6 457.2 a3.3 3.3 0 1 0 6.6 0 a3.3 3.3 0 1 0 -6.6 0zM370.34 460.6L372.07 459.88L370.2 455.37L368.48 456.09zM366.04 455.73 a3.3 3.3 0 1 0 6.6 0 a3.3 3.3 0 1 0 -6.6 0zM383.89 457.53L385.75 457.53L385.75 444.3L383.89 444.3zM381.52 444.3 a3.3 3.3 0 1 0 6.6 0 a3.3 3.3 0 1 0 -6.6 0zM397.58 459.88L399.3 460.6L401.07 456.32L399.35 455.61zM396.91 455.96 a3.3 3.3 0 1 0 6.6 0 a3.3 3.3 0 1 0 -6.6 0zM409.33 467.29L410.64 468.61L414.41 464.84L413.09 463.53zM410.45 464.18 a3.3 3.3 0 1 0 6.6 0 a3.3 3.3 0 1 0 -6.6 0zM417.34 478.64L418.05 480.36L433.91 473.79L433.19 472.07zM430.25 472.93 a3.3 3.3 0 1 0 6.6 0 a3.3 3.3 0 1 0 -6.6 0zM349.22 493.12 a35.6 35.6 0 1 0 71.2 0 a35.6 35.6 0 1 0 -71.2 0z" fill="rgba(187, 65, 65, 1)"></path><path d="M414.99 474.22 A34.5968 34.5968 0 0 1 386.18 528.69M386.18 528.69 A71.1936 71.1936 0 0 0 414.99 474.22" fill="#963434" fill-rule="nonzero"></path><path d="M360.02 496.87 a7.12 7.12 0 1 0 14.24 0 a7.12 7.12 0 1 0 -14.24 0zM379.45 505.8 a5.34 5.34 0 1 0 10.68 0 a5.34 5.34 0 1 0 -10.68 0zM404.8 489.67 a7.12 7.12 0 1 0 14.24 0 a7.12 7.12 0 1 0 -14.24 0zM370.04 464.87 a5.7 5.7 0 1 0 11.4 0 a5.7 5.7 0 1 0 -11.4 0zM386.23 474.35 a6.05 6.05 0 1 0 12.1 0 a6.05 6.05 0 1 0 -12.1 0zM398.83 508.21 a5.7 5.7 0 1 0 11.4 0 a5.7 5.7 0 1 0 -11.4 0zM373.37 525.36 a1.78 1.78 0 1 0 3.56 0 a1.78 1.78 0 1 0 -3.56 0zM361.96 474.58 a2.14 2.14 0 1 0 4.28 0 a2.14 2.14 0 1 0 -4.28 0zM393.03 489.31 a1.78 1.78 0 1 0 3.56 0 a1.78 1.78 0 1 0 -3.56 0zM365.57 517.74 a1.78 1.78 0 1 0 3.56 0 a1.78 1.78 0 1 0 -3.56 0z" fill="#963434" fill-rule="nonzero"></path><path d="M689.92 300.41L689.92 304.14L721.37 304.14L721.37 300.41zM714.77 302.28 a6.6 6.6 0 1 0 13.2 0 a6.6 6.6 0 1 0 -13.2 0zM685.22 327.79L683.79 331.23L707.54 341.07L708.97 337.63zM701.66 339.35 a6.6 6.6 0 1 0 13.2 0 a6.6 6.6 0 1 0 -13.2 0zM670.4 351.28L667.76 353.92L687.99 374.15L690.63 371.51zM682.71 372.83 a6.6 6.6 0 1 0 13.2 0 a6.6 6.6 0 1 0 -13.2 0zM647.71 367.32L644.27 368.74L654.81 394.19L658.25 392.76zM649.93 393.47 a6.6 6.6 0 1 0 13.2 0 a6.6 6.6 0 1 0 -13.2 0zM620.62 373.45L616.89 373.45L616.89 391.89L620.62 391.89zM612.15 391.89 a6.6 6.6 0 1 0 13.2 0 a6.6 6.6 0 1 0 -13.2 0zM593.24 368.74L589.8 367.32L581.43 387.5L584.88 388.93zM576.56 388.22 a6.6 6.6 0 1 0 13.2 0 a6.6 6.6 0 1 0 -13.2 0zM569.75 353.92L567.11 351.28L544.93 373.47L547.56 376.1zM539.65 374.78 a6.6 6.6 0 1 0 13.2 0 a6.6 6.6 0 1 0 -13.2 0zM553.71 331.23L552.29 327.79L538.55 333.48L539.98 336.92zM532.66 335.2 a6.6 6.6 0 1 0 13.2 0 a6.6 6.6 0 1 0 -13.2 0zM547.58 304.14L547.58 300.41L527.83 300.41L527.83 304.14zM521.23 302.28 a6.6 6.6 0 1 0 13.2 0 a6.6 6.6 0 1 0 -13.2 0zM552.29 276.76L553.71 273.32L528.14 262.73L526.72 266.17zM520.83 264.45 a6.6 6.6 0 1 0 13.2 0 a6.6 6.6 0 1 0 -13.2 0zM567.11 253.27L569.75 250.63L562 242.89L559.37 245.53zM554.09 244.21 a6.6 6.6 0 1 0 13.2 0 a6.6 6.6 0 1 0 -13.2 0zM589.8 237.24L593.24 235.81L584.82 215.5L581.38 216.92zM576.5 216.21 a6.6 6.6 0 1 0 13.2 0 a6.6 6.6 0 1 0 -13.2 0zM616.89 231.11L620.62 231.11L620.62 205L616.89 205zM612.15 205 a6.6 6.6 0 1 0 13.2 0 a6.6 6.6 0 1 0 -13.2 0zM644.27 235.81L647.71 237.24L659.54 208.67L656.1 207.25zM651.22 207.96 a6.6 6.6 0 1 0 13.2 0 a6.6 6.6 0 1 0 -13.2 0zM667.76 250.63L670.4 253.27L688.94 234.72L686.31 232.09zM681.02 233.41 a6.6 6.6 0 1 0 13.2 0 a6.6 6.6 0 1 0 -13.2 0zM683.79 273.32L685.22 276.76L705.68 268.29L704.26 264.84zM698.37 266.57 a6.6 6.6 0 1 0 13.2 0 a6.6 6.6 0 1 0 -13.2 0zM547.56 302.28 a71.19 71.19 0 1 0 142.38 0 a71.19 71.19 0 1 0 -142.38 0z" fill="rgba(187, 65, 65, 1)"></path><path d="M576.91 244.68 A70.1936 70.1936 0 0 1 689.54 294.69M689.54 294.69 A142.3872 142.3872 0 0 0 576.91 244.68" fill="#963434" fill-rule="nonzero"></path><path d="M642.78 260.14 a14.24 14.24 0 1 0 28.48 0 a14.24 14.24 0 1 0 -28.48 0zM612.1 238.9 a7.12 7.12 0 1 0 14.24 0 a7.12 7.12 0 1 0 -14.24 0zM668.07 302.73 a10.68 10.68 0 1 0 21.36 0 a10.68 10.68 0 1 0 -21.36 0zM648.15 348.74 a9.97 9.97 0 1 0 19.94 0 a9.97 9.97 0 1 0 -19.94 0zM597.02 299.22 a14.24 14.24 0 1 0 28.48 0 a14.24 14.24 0 1 0 -28.48 0zM548.66 310.53 a12.81 12.81 0 1 0 25.62 0 a12.81 12.81 0 1 0 -25.62 0zM634.84 316.53 a3.56 3.56 0 1 0 7.12 0 a3.56 3.56 0 1 0 -7.12 0zM577.32 347.12 a14.24 14.24 0 1 0 28.48 0 a14.24 14.24 0 1 0 -28.48 0zM562.65 265.87 a14.24 14.24 0 1 0 28.48 0 a14.24 14.24 0 1 0 -28.48 0zM620.23 348.36 a4.98 4.98 0 1 0 9.96 0 a4.98 4.98 0 1 0 -9.96 0z" fill="#963434" fill-rule="nonzero"></path><path d="M1340.03 413.1L1340.03 416.83L1356.73 416.83L1356.73 413.1zM1350.13 414.96 a6.6 6.6 0 1 0 13.2 0 a6.6 6.6 0 1 0 -13.2 0zM1335.33 440.48L1333.9 443.92L1353.51 452.04L1354.93 448.6zM1347.62 450.32 a6.6 6.6 0 1 0 13.2 0 a6.6 6.6 0 1 0 -13.2 0zM1320.51 463.97L1317.87 466.6L1327.49 476.23L1330.13 473.59zM1322.21 474.91 a6.6 6.6 0 1 0 13.2 0 a6.6 6.6 0 1 0 -13.2 0zM1297.82 480L1294.38 481.43L1307.5 513.1L1310.94 511.67zM1302.62 512.38 a6.6 6.6 0 1 0 13.2 0 a6.6 6.6 0 1 0 -13.2 0zM1270.73 486.13L1267 486.13L1267 509.46L1270.73 509.46zM1262.26 509.46 a6.6 6.6 0 1 0 13.2 0 a6.6 6.6 0 1 0 -13.2 0zM1243.35 481.43L1239.91 480L1235.43 490.8L1238.88 492.23zM1230.56 491.51 a6.6 6.6 0 1 0 13.2 0 a6.6 6.6 0 1 0 -13.2 0zM1219.86 466.6L1217.22 463.97L1197.08 484.11L1199.71 486.75zM1191.79 485.43 a6.6 6.6 0 1 0 13.2 0 a6.6 6.6 0 1 0 -13.2 0zM1203.83 443.92L1202.4 440.48L1186.39 447.11L1187.81 450.55zM1180.5 448.83 a6.6 6.6 0 1 0 13.2 0 a6.6 6.6 0 1 0 -13.2 0zM1197.69 416.83L1197.69 413.1L1178.94 413.1L1178.94 416.83zM1172.34 414.96 a6.6 6.6 0 1 0 13.2 0 a6.6 6.6 0 1 0 -13.2 0zM1202.4 389.45L1203.83 386.01L1175.68 374.35L1174.26 377.79zM1168.37 376.07 a6.6 6.6 0 1 0 13.2 0 a6.6 6.6 0 1 0 -13.2 0zM1217.22 365.96L1219.86 363.32L1210.55 354.01L1207.91 356.64zM1202.63 355.33 a6.6 6.6 0 1 0 13.2 0 a6.6 6.6 0 1 0 -13.2 0zM1239.91 349.92L1243.35 348.5L1232.56 322.44L1229.12 323.87zM1224.24 323.16 a6.6 6.6 0 1 0 13.2 0 a6.6 6.6 0 1 0 -13.2 0zM1267 343.79L1270.73 343.79L1270.73 314.21L1267 314.21zM1262.26 314.21 a6.6 6.6 0 1 0 13.2 0 a6.6 6.6 0 1 0 -13.2 0zM1294.38 348.5L1297.82 349.92L1304.05 334.89L1300.6 333.47zM1295.73 334.18 a6.6 6.6 0 1 0 13.2 0 a6.6 6.6 0 1 0 -13.2 0zM1317.87 363.32L1320.51 365.96L1339.32 347.14L1336.69 344.5zM1331.4 345.82 a6.6 6.6 0 1 0 13.2 0 a6.6 6.6 0 1 0 -13.2 0zM1333.9 386.01L1335.33 389.45L1367.73 376.03L1366.3 372.58zM1360.42 374.31 a6.6 6.6 0 1 0 13.2 0 a6.6 6.6 0 1 0 -13.2 0zM1197.67 414.96 a71.19 71.19 0 1 0 142.38 0 a71.19 71.19 0 1 0 -142.38 0z" fill="rgba(187, 65, 65, 1)"></path><path d="M1283.14 484.71 A70.1936 70.1936 0 0 1 1201.27 392.6M1201.27 392.6 A142.3872 142.3872 0 0 0 1283.14 484.71" fill="#963434" fill-rule="nonzero"></path><path d="M1281.14 366.72 a14.24 14.24 0 1 0 28.48 0 a14.24 14.24 0 1 0 -28.48 0zM1302.89 421.26 a14.24 14.24 0 1 0 28.48 0 a14.24 14.24 0 1 0 -28.48 0zM1234.81 420.63 a14.24 14.24 0 1 0 28.48 0 a14.24 14.24 0 1 0 -28.48 0zM1259.83 360.48 a3.56 3.56 0 1 0 7.12 0 a3.56 3.56 0 1 0 -7.12 0zM1232.33 457.77 a9.26 9.26 0 1 0 18.52 0 a9.26 9.26 0 1 0 -18.52 0zM1217.33 404.45 a3.56 3.56 0 1 0 7.12 0 a3.56 3.56 0 1 0 -7.12 0zM1207.3 425.21 a4.27 4.27 0 1 0 8.54 0 a4.27 4.27 0 1 0 -8.54 0zM1220.94 383.93 a2.85 2.85 0 1 0 5.7 0 a2.85 2.85 0 1 0 -5.7 0zM1273.27 395.97 a4.98 4.98 0 1 0 9.96 0 a4.98 4.98 0 1 0 -9.96 0zM1271.75 470.9 a12.81 12.81 0 1 0 25.62 0 a12.81 12.81 0 1 0 -25.62 0z" fill="#963434" fill-rule="nonzero"></path><path d="M833.45 67.22L833.45 69.08L843.13 69.08L843.13 67.22zM839.83 68.15 a3.3 3.3 0 1 0 6.6 0 a3.3 3.3 0 1 0 -6.6 0zM831.1 80.91L830.39 82.63L835.97 84.94L836.68 83.22zM833.02 84.08 a3.3 3.3 0 1 0 6.6 0 a3.3 3.3 0 1 0 -6.6 0zM823.69 92.66L822.37 93.97L828.06 99.66L829.37 98.34zM825.42 99 a3.3 3.3 0 1 0 6.6 0 a3.3 3.3 0 1 0 -6.6 0zM812.35 100.67L810.63 101.38L817.1 117.01L818.82 116.29zM814.66 116.65 a3.3 3.3 0 1 0 6.6 0 a3.3 3.3 0 1 0 -6.6 0zM798.8 103.74L796.94 103.74L796.94 117.36L798.8 117.36zM794.57 117.36 a3.3 3.3 0 1 0 6.6 0 a3.3 3.3 0 1 0 -6.6 0zM785.11 101.38L783.39 100.67L780.49 107.68L782.21 108.4zM778.05 108.04 a3.3 3.3 0 1 0 6.6 0 a3.3 3.3 0 1 0 -6.6 0zM773.37 93.97L772.05 92.66L767.36 97.34L768.68 98.66zM764.72 98 a3.3 3.3 0 1 0 6.6 0 a3.3 3.3 0 1 0 -6.6 0zM765.35 82.63L764.64 80.91L750.78 86.65L751.49 88.37zM747.83 87.51 a3.3 3.3 0 1 0 6.6 0 a3.3 3.3 0 1 0 -6.6 0zM762.28 69.08L762.28 67.22L750.13 67.22L750.13 69.08zM746.83 68.15 a3.3 3.3 0 1 0 6.6 0 a3.3 3.3 0 1 0 -6.6 0zM764.64 55.4L765.35 53.67L751.63 47.99L750.92 49.71zM747.97 48.85 a3.3 3.3 0 1 0 6.6 0 a3.3 3.3 0 1 0 -6.6 0zM772.05 43.65L773.37 42.33L769.44 38.41L768.12 39.72zM765.48 39.07 a3.3 3.3 0 1 0 6.6 0 a3.3 3.3 0 1 0 -6.6 0zM783.39 35.63L785.11 34.92L782.51 28.64L780.79 29.35zM778.35 28.99 a3.3 3.3 0 1 0 6.6 0 a3.3 3.3 0 1 0 -6.6 0zM796.94 32.57L798.8 32.57L798.8 27.02L796.94 27.02zM794.57 27.02 a3.3 3.3 0 1 0 6.6 0 a3.3 3.3 0 1 0 -6.6 0zM810.63 34.92L812.35 35.63L818.86 19.9L817.14 19.19zM814.7 19.54 a3.3 3.3 0 1 0 6.6 0 a3.3 3.3 0 1 0 -6.6 0zM822.37 42.33L823.69 43.65L833.43 33.9L832.12 32.59zM829.47 33.25 a3.3 3.3 0 1 0 6.6 0 a3.3 3.3 0 1 0 -6.6 0zM830.39 53.67L831.1 55.4L847.08 48.77L846.37 47.05zM843.43 47.91 a3.3 3.3 0 1 0 6.6 0 a3.3 3.3 0 1 0 -6.6 0zM762.27 68.15 a35.6 35.6 0 1 0 71.2 0 a35.6 35.6 0 1 0 -71.2 0z" fill="rgba(187, 65, 65, 1)"></path><path d="M766.99 50.45 A34.5968 34.5968 0 0 1 828.61 50.2M828.61 50.2 A71.1936 71.1936 0 0 0 766.99 50.45" fill="#963434" fill-rule="nonzero"></path><path d="M794.64 101.53 a2.14 2.14 0 1 0 4.28 0 a2.14 2.14 0 1 0 -4.28 0zM782.45 86.21 a7.12 7.12 0 1 0 14.24 0 a7.12 7.12 0 1 0 -14.24 0zM801.02 50.87 a7.12 7.12 0 1 0 14.24 0 a7.12 7.12 0 1 0 -14.24 0zM791.07 62.95 a3.56 3.56 0 1 0 7.12 0 a3.56 3.56 0 1 0 -7.12 0zM790.17 51.09 a1.42 1.42 0 1 0 2.84 0 a1.42 1.42 0 1 0 -2.84 0zM772.2 45.11 a3.2 3.2 0 1 0 6.4 0 a3.2 3.2 0 1 0 -6.4 0zM773.55 73.17 a3.56 3.56 0 1 0 7.12 0 a3.56 3.56 0 1 0 -7.12 0zM811.44 85.58 a7.12 7.12 0 1 0 14.24 0 a7.12 7.12 0 1 0 -14.24 0zM819.65 61.55 a6.41 6.41 0 1 0 12.82 0 a6.41 6.41 0 1 0 -12.82 0zM777.67 56.54 a1.78 1.78 0 1 0 3.56 0 a1.78 1.78 0 1 0 -3.56 0z" fill="#963434" fill-rule="nonzero"></path><path d="M1016.42 496.31L1016.42 498.18L1028.91 498.18L1028.91 496.31zM1025.61 497.24 a3.3 3.3 0 1 0 6.6 0 a3.3 3.3 0 1 0 -6.6 0zM1014.07 510L1013.36 511.72L1028.57 518.03L1029.29 516.3zM1025.63 517.16 a3.3 3.3 0 1 0 6.6 0 a3.3 3.3 0 1 0 -6.6 0zM1006.66 521.75L1005.34 523.06L1016.16 533.88L1017.48 532.57zM1013.52 533.22 a3.3 3.3 0 1 0 6.6 0 a3.3 3.3 0 1 0 -6.6 0zM995.32 529.76L993.6 530.48L999.65 545.09L1001.37 544.38zM997.21 544.74 a3.3 3.3 0 1 0 6.6 0 a3.3 3.3 0 1 0 -6.6 0zM981.77 532.83L979.91 532.83L979.91 545.84L981.77 545.84zM977.54 545.84 a3.3 3.3 0 1 0 6.6 0 a3.3 3.3 0 1 0 -6.6 0zM968.08 530.48L966.36 529.76L960.91 542.92L962.63 543.63zM958.47 543.28 a3.3 3.3 0 1 0 6.6 0 a3.3 3.3 0 1 0 -6.6 0zM956.34 523.06L955.02 521.75L946.75 530.01L948.07 531.33zM944.11 530.67 a3.3 3.3 0 1 0 6.6 0 a3.3 3.3 0 1 0 -6.6 0zM948.32 511.72L947.61 510L932.31 516.34L933.02 518.06zM929.36 517.2 a3.3 3.3 0 1 0 6.6 0 a3.3 3.3 0 1 0 -6.6 0zM945.25 498.18L945.25 496.31L933.61 496.31L933.61 498.18zM930.31 497.24 a3.3 3.3 0 1 0 6.6 0 a3.3 3.3 0 1 0 -6.6 0zM947.61 484.49L948.32 482.77L941.85 480.09L941.14 481.81zM938.2 480.95 a3.3 3.3 0 1 0 6.6 0 a3.3 3.3 0 1 0 -6.6 0zM955.02 472.74L956.34 471.42L952.3 467.39L950.98 468.7zM948.34 468.04 a3.3 3.3 0 1 0 6.6 0 a3.3 3.3 0 1 0 -6.6 0zM966.36 464.72L968.08 464.01L964.33 454.96L962.61 455.67zM960.17 455.31 a3.3 3.3 0 1 0 6.6 0 a3.3 3.3 0 1 0 -6.6 0zM979.91 461.66L981.77 461.66L981.77 444.14L979.91 444.14zM977.54 444.14 a3.3 3.3 0 1 0 6.6 0 a3.3 3.3 0 1 0 -6.6 0zM993.6 464.01L995.32 464.72L999.27 455.17L997.55 454.46zM995.11 454.81 a3.3 3.3 0 1 0 6.6 0 a3.3 3.3 0 1 0 -6.6 0zM1005.34 471.42L1006.66 472.74L1017.59 461.81L1016.27 460.49zM1013.63 461.15 a3.3 3.3 0 1 0 6.6 0 a3.3 3.3 0 1 0 -6.6 0zM1013.36 482.77L1014.07 484.49L1021.45 481.43L1020.74 479.71zM1017.8 480.57 a3.3 3.3 0 1 0 6.6 0 a3.3 3.3 0 1 0 -6.6 0zM945.24 497.24 a35.6 35.6 0 1 0 71.2 0 a35.6 35.6 0 1 0 -71.2 0z" fill="rgba(187, 65, 65, 1)"></path><path d="M998.71 466.46 A34.5968 34.5968 0 0 1 998.63 528.08M998.63 528.08 A71.1936 71.1936 0 0 0 998.71 466.46" fill="#963434" fill-rule="nonzero"></path><path d="M956.86 495.21 a7.12 7.12 0 1 0 14.24 0 a7.12 7.12 0 1 0 -14.24 0zM988.41 489.8 a7.12 7.12 0 1 0 14.24 0 a7.12 7.12 0 1 0 -14.24 0zM1001.8 475.33 a2.85 2.85 0 1 0 5.7 0 a2.85 2.85 0 1 0 -5.7 0zM969.87 510.03 a2.85 2.85 0 1 0 5.7 0 a2.85 2.85 0 1 0 -5.7 0zM984.03 471.06 a5.34 5.34 0 1 0 10.68 0 a5.34 5.34 0 1 0 -10.68 0zM1002.18 516.2 a3.92 3.92 0 1 0 7.84 0 a3.92 3.92 0 1 0 -7.84 0zM978.3 490.16 a1.42 1.42 0 1 0 2.84 0 a1.42 1.42 0 1 0 -2.84 0zM960.58 475.9 a4.98 4.98 0 1 0 9.96 0 a4.98 4.98 0 1 0 -9.96 0zM1006.94 503.45 a1.78 1.78 0 1 0 3.56 0 a1.78 1.78 0 1 0 -3.56 0zM957.75 514.43 a2.85 2.85 0 1 0 5.7 0 a2.85 2.85 0 1 0 -5.7 0z" fill="#963434" fill-rule="nonzero"></path><path d="M1394.99 160.11L1394.99 162.44L1410.33 162.44L1410.33 160.11zM1406.2 161.27 a4.13 4.13 0 1 0 8.26 0 a4.13 4.13 0 1 0 -8.26 0zM1392.05 177.22L1391.16 179.37L1401.15 183.51L1402.04 181.36zM1397.47 182.43 a4.13 4.13 0 1 0 8.26 0 a4.13 4.13 0 1 0 -8.26 0zM1382.78 191.9L1381.14 193.55L1390.1 202.51L1391.74 200.86zM1386.79 201.68 a4.13 4.13 0 1 0 8.26 0 a4.13 4.13 0 1 0 -8.26 0zM1368.61 201.92L1366.45 202.81L1369.11 209.23L1371.26 208.34zM1366.06 208.79 a4.13 4.13 0 1 0 8.26 0 a4.13 4.13 0 1 0 -8.26 0zM1351.67 205.75L1349.34 205.75L1349.34 213.84L1351.67 213.84zM1346.38 213.84 a4.13 4.13 0 1 0 8.26 0 a4.13 4.13 0 1 0 -8.26 0zM1334.56 202.81L1332.41 201.92L1328.07 212.41L1330.22 213.3zM1325.01 212.85 a4.13 4.13 0 1 0 8.26 0 a4.13 4.13 0 1 0 -8.26 0zM1319.88 193.55L1318.23 191.9L1306.68 203.45L1308.33 205.1zM1303.38 204.27 a4.13 4.13 0 1 0 8.26 0 a4.13 4.13 0 1 0 -8.26 0zM1309.86 179.37L1308.97 177.22L1296.94 182.2L1297.83 184.35zM1293.25 183.28 a4.13 4.13 0 1 0 8.26 0 a4.13 4.13 0 1 0 -8.26 0zM1306.03 162.44L1306.03 160.11L1291.44 160.11L1291.44 162.44zM1287.31 161.27 a4.13 4.13 0 1 0 8.26 0 a4.13 4.13 0 1 0 -8.26 0zM1308.97 145.33L1309.86 143.17L1297.8 138.18L1296.91 140.33zM1293.23 139.26 a4.13 4.13 0 1 0 8.26 0 a4.13 4.13 0 1 0 -8.26 0zM1318.23 130.64L1319.88 129L1313.16 122.28L1311.51 123.93zM1308.21 123.1 a4.13 4.13 0 1 0 8.26 0 a4.13 4.13 0 1 0 -8.26 0zM1332.41 120.62L1334.56 119.73L1331.87 113.24L1329.72 114.13zM1326.66 113.68 a4.13 4.13 0 1 0 8.26 0 a4.13 4.13 0 1 0 -8.26 0zM1349.34 116.79L1351.67 116.79L1351.67 98.73L1349.34 98.73zM1346.38 98.73 a4.13 4.13 0 1 0 8.26 0 a4.13 4.13 0 1 0 -8.26 0zM1366.45 119.73L1368.61 120.62L1372.23 111.87L1370.08 110.98zM1367.02 111.43 a4.13 4.13 0 1 0 8.26 0 a4.13 4.13 0 1 0 -8.26 0zM1381.14 129L1382.78 130.64L1390.65 122.77L1389.01 121.13zM1385.7 121.95 a4.13 4.13 0 1 0 8.26 0 a4.13 4.13 0 1 0 -8.26 0zM1391.16 143.17L1392.05 145.33L1397.81 142.94L1396.92 140.79zM1393.24 141.86 a4.13 4.13 0 1 0 8.26 0 a4.13 4.13 0 1 0 -8.26 0zM1306.01 161.27 a44.5 44.5 0 1 0 89 0 a44.5 44.5 0 1 0 -89 0z" fill="rgba(187, 65, 65, 1)"></path><path d="M1324.59 125.11 A43.496 43.496 0 0 1 1394.78 156.81M1394.78 156.81 A88.992 88.992 0 0 0 1324.59 125.11" fill="#963434" fill-rule="nonzero"></path><path d="M1319.39 154.6 a8.9 8.9 0 1 0 17.8 0 a8.9 8.9 0 1 0 -17.8 0zM1344.1 182.95 a8.9 8.9 0 1 0 17.8 0 a8.9 8.9 0 1 0 -17.8 0zM1313.77 170.86 a2.22 2.22 0 1 0 4.44 0 a2.22 2.22 0 1 0 -4.44 0zM1361.58 143.6 a8.9 8.9 0 1 0 17.8 0 a8.9 8.9 0 1 0 -17.8 0zM1346.96 144.4 a2.67 2.67 0 1 0 5.34 0 a2.67 2.67 0 1 0 -5.34 0zM1370.56 178.36 a1.78 1.78 0 1 0 3.56 0 a1.78 1.78 0 1 0 -3.56 0zM1381.26 184.94 a2.22 2.22 0 1 0 4.44 0 a2.22 2.22 0 1 0 -4.44 0zM1345.77 118.87 a1.78 1.78 0 1 0 3.56 0 a1.78 1.78 0 1 0 -3.56 0zM1331.61 198.56 a4.45 4.45 0 1 0 8.9 0 a4.45 4.45 0 1 0 -8.9 0zM1328.23 179.35 a3.56 3.56 0 1 0 7.12 0 a3.56 3.56 0 1 0 -7.12 0z" fill="#963434" fill-rule="nonzero"></path><path d="M1161.54 156.17L1161.54 159.43L1175.01 159.43L1175.01 156.17zM1169.23 157.8 a5.78 5.78 0 1 0 11.56 0 a5.78 5.78 0 1 0 -11.56 0zM1157.42 180.13L1156.17 183.14L1169.77 188.77L1171.01 185.76zM1164.61 187.26 a5.78 5.78 0 1 0 11.56 0 a5.78 5.78 0 1 0 -11.56 0zM1144.45 200.68L1142.15 202.99L1161.13 221.97L1163.43 219.66zM1156.5 220.82 a5.78 5.78 0 1 0 11.56 0 a5.78 5.78 0 1 0 -11.56 0zM1124.6 214.71L1121.59 215.96L1129.62 235.33L1132.63 234.09zM1125.34 234.71 a5.78 5.78 0 1 0 11.56 0 a5.78 5.78 0 1 0 -11.56 0zM1100.9 220.08L1097.64 220.08L1097.64 235.8L1100.9 235.8zM1093.49 235.8 a5.78 5.78 0 1 0 11.56 0 a5.78 5.78 0 1 0 -11.56 0zM1076.94 215.96L1073.93 214.71L1064.56 237.34L1067.57 238.59zM1060.28 237.96 a5.78 5.78 0 1 0 11.56 0 a5.78 5.78 0 1 0 -11.56 0zM1056.39 202.99L1054.08 200.68L1047.04 207.72L1049.35 210.03zM1042.42 208.87 a5.78 5.78 0 1 0 11.56 0 a5.78 5.78 0 1 0 -11.56 0zM1042.36 183.14L1041.11 180.13L1028.51 185.35L1029.76 188.36zM1023.35 186.85 a5.78 5.78 0 1 0 11.56 0 a5.78 5.78 0 1 0 -11.56 0zM1036.99 159.43L1036.99 156.17L1021.58 156.17L1021.58 159.43zM1015.8 157.8 a5.78 5.78 0 1 0 11.56 0 a5.78 5.78 0 1 0 -11.56 0zM1041.11 135.48L1042.36 132.47L1033.53 128.81L1032.28 131.82zM1027.12 130.31 a5.78 5.78 0 1 0 11.56 0 a5.78 5.78 0 1 0 -11.56 0zM1054.08 114.92L1056.39 112.62L1045.51 101.74L1043.2 104.05zM1038.58 102.9 a5.78 5.78 0 1 0 11.56 0 a5.78 5.78 0 1 0 -11.56 0zM1073.93 100.9L1076.94 99.65L1072.56 89.07L1069.55 90.32zM1065.27 89.69 a5.78 5.78 0 1 0 11.56 0 a5.78 5.78 0 1 0 -11.56 0zM1097.64 95.53L1100.9 95.53L1100.9 66.98L1097.64 66.98zM1093.49 66.98 a5.78 5.78 0 1 0 11.56 0 a5.78 5.78 0 1 0 -11.56 0zM1121.59 99.65L1124.6 100.9L1135.67 74.17L1132.66 72.92zM1128.39 73.54 a5.78 5.78 0 1 0 11.56 0 a5.78 5.78 0 1 0 -11.56 0zM1142.15 112.62L1144.45 114.92L1152.38 107L1150.07 104.69zM1145.45 105.84 a5.78 5.78 0 1 0 11.56 0 a5.78 5.78 0 1 0 -11.56 0zM1156.17 132.47L1157.42 135.48L1179.88 126.18L1178.63 123.16zM1173.48 124.67 a5.78 5.78 0 1 0 11.56 0 a5.78 5.78 0 1 0 -11.56 0zM1036.98 157.8 a62.29 62.29 0 1 0 124.58 0 a62.29 62.29 0 1 0 -124.58 0z" fill="rgba(187, 65, 65, 1)"></path><path d="M1153.43 127.03 A61.294399999999996 61.294399999999996 0 0 1 1098.96 220.1M1098.96 220.1 A124.58879999999999 124.58879999999999 0 0 0 1153.43 127.03" fill="#963434" fill-rule="nonzero"></path><path d="M1103.64 146.34 a12.46 12.46 0 1 0 24.92 0 a12.46 12.46 0 1 0 -24.92 0zM1042.14 180.57 a6.85 6.85 0 1 0 13.7 0 a6.85 6.85 0 1 0 -13.7 0zM1069.92 179.51 a12.46 12.46 0 1 0 24.92 0 a12.46 12.46 0 1 0 -24.92 0zM1107.41 180.71 a3.74 3.74 0 1 0 7.48 0 a3.74 3.74 0 1 0 -7.48 0zM1127.45 177.66 a3.74 3.74 0 1 0 7.48 0 a3.74 3.74 0 1 0 -7.48 0zM1117.48 112.76 a9.34 9.34 0 1 0 18.68 0 a9.34 9.34 0 1 0 -18.68 0zM1140.36 162.41 a3.11 3.11 0 1 0 6.22 0 a3.11 3.11 0 1 0 -6.22 0zM1039.81 140.69 a8.72 8.72 0 1 0 17.44 0 a8.72 8.72 0 1 0 -17.44 0zM1099.26 207.47 a10.59 10.59 0 1 0 21.18 0 a10.59 10.59 0 1 0 -21.18 0zM1070.03 140.15 a10.59 10.59 0 1 0 21.18 0 a10.59 10.59 0 1 0 -21.18 0z" fill="#963434" fill-rule="nonzero"></path><path d="M286.49 57.99L286.49 59.86L304.08 59.86L304.08 57.99zM300.78 58.92 a3.3 3.3 0 1 0 6.6 0 a3.3 3.3 0 1 0 -6.6 0zM284.14 71.68L283.43 73.4L288.47 75.49L289.18 73.77zM285.53 74.63 a3.3 3.3 0 1 0 6.6 0 a3.3 3.3 0 1 0 -6.6 0zM276.73 83.43L275.41 84.75L279.48 88.82L280.8 87.5zM276.84 88.16 a3.3 3.3 0 1 0 6.6 0 a3.3 3.3 0 1 0 -6.6 0zM265.39 91.44L263.66 92.16L267.09 100.42L268.81 99.7zM264.65 100.06 a3.3 3.3 0 1 0 6.6 0 a3.3 3.3 0 1 0 -6.6 0zM251.84 94.51L249.98 94.51L249.98 100.47L251.84 100.47zM247.61 100.47 a3.3 3.3 0 1 0 6.6 0 a3.3 3.3 0 1 0 -6.6 0zM238.15 92.16L236.43 91.44L230.98 104.59L232.71 105.3zM228.54 104.95 a3.3 3.3 0 1 0 6.6 0 a3.3 3.3 0 1 0 -6.6 0zM226.4 84.75L225.09 83.43L217.24 91.27L218.56 92.59zM214.6 91.93 a3.3 3.3 0 1 0 6.6 0 a3.3 3.3 0 1 0 -6.6 0zM218.39 73.4L217.68 71.68L211.37 74.29L212.09 76.01zM208.43 75.15 a3.3 3.3 0 1 0 6.6 0 a3.3 3.3 0 1 0 -6.6 0zM215.32 59.86L215.32 57.99L208.74 57.99L208.74 59.86zM205.44 58.92 a3.3 3.3 0 1 0 6.6 0 a3.3 3.3 0 1 0 -6.6 0zM217.68 46.17L218.39 44.45L213.25 42.32L212.54 44.04zM209.59 43.18 a3.3 3.3 0 1 0 6.6 0 a3.3 3.3 0 1 0 -6.6 0zM225.09 34.42L226.4 33.1L218.38 25.08L217.06 26.4zM214.42 25.74 a3.3 3.3 0 1 0 6.6 0 a3.3 3.3 0 1 0 -6.6 0zM236.43 26.4L238.15 25.69L234.48 16.82L232.76 17.54zM230.32 17.18 a3.3 3.3 0 1 0 6.6 0 a3.3 3.3 0 1 0 -6.6 0zM249.98 23.34L251.84 23.34L251.84 9.43L249.98 9.43zM247.61 9.43 a3.3 3.3 0 1 0 6.6 0 a3.3 3.3 0 1 0 -6.6 0zM263.66 25.69L265.39 26.4L268.99 17.7L267.27 16.99zM264.83 17.35 a3.3 3.3 0 1 0 6.6 0 a3.3 3.3 0 1 0 -6.6 0zM275.41 33.1L276.73 34.42L281.11 30.04L279.79 28.72zM277.15 29.38 a3.3 3.3 0 1 0 6.6 0 a3.3 3.3 0 1 0 -6.6 0zM283.43 44.45L284.14 46.17L297.59 40.6L296.88 38.87zM293.94 39.73 a3.3 3.3 0 1 0 6.6 0 a3.3 3.3 0 1 0 -6.6 0zM215.31 58.92 a35.6 35.6 0 1 0 71.2 0 a35.6 35.6 0 1 0 -71.2 0z" fill="rgba(187, 65, 65, 1)"></path><path d="M286.41 56.4 A34.5968 34.5968 0 0 1 235.4 90.97M235.4 90.97 A71.1936 71.1936 0 0 0 286.41 56.4" fill="#963434" fill-rule="nonzero"></path><path d="M278.29 62.83 a3.92 3.92 0 1 0 7.84 0 a3.92 3.92 0 1 0 -7.84 0zM281.89 48.22 a1.42 1.42 0 1 0 2.84 0 a1.42 1.42 0 1 0 -2.84 0zM256.51 55.84 a7.12 7.12 0 1 0 14.24 0 a7.12 7.12 0 1 0 -14.24 0zM274.07 75.18 a2.49 2.49 0 1 0 4.98 0 a2.49 2.49 0 1 0 -4.98 0zM219.01 72.95 a6.41 6.41 0 1 0 12.82 0 a6.41 6.41 0 1 0 -12.82 0zM218.93 47.84 a7.12 7.12 0 1 0 14.24 0 a7.12 7.12 0 1 0 -14.24 0zM248.79 79.06 a7.12 7.12 0 1 0 14.24 0 a7.12 7.12 0 1 0 -14.24 0zM258.17 28.11 a2.85 2.85 0 1 0 5.7 0 a2.85 2.85 0 1 0 -5.7 0zM239.96 42.92 a3.92 3.92 0 1 0 7.84 0 a3.92 3.92 0 1 0 -7.84 0zM236.37 29.05 a3.2 3.2 0 1 0 6.4 0 a3.2 3.2 0 1 0 -6.4 0z" fill="#963434" fill-rule="nonzero"></path><path d="M503.14 95.75L503.14 97.61L518.74 97.61L518.74 95.75zM515.44 96.68 a3.3 3.3 0 1 0 6.6 0 a3.3 3.3 0 1 0 -6.6 0zM500.79 109.44L500.07 111.16L513.72 116.81L514.43 115.09zM510.77 115.95 a3.3 3.3 0 1 0 6.6 0 a3.3 3.3 0 1 0 -6.6 0zM493.37 121.18L492.06 122.5L502.87 133.32L504.19 132zM500.23 132.66 a3.3 3.3 0 1 0 6.6 0 a3.3 3.3 0 1 0 -6.6 0zM482.03 129.2L480.31 129.91L483.34 137.24L485.07 136.52zM480.9 136.88 a3.3 3.3 0 1 0 6.6 0 a3.3 3.3 0 1 0 -6.6 0zM468.48 132.26L466.62 132.26L466.62 148.07L468.48 148.07zM464.25 148.07 a3.3 3.3 0 1 0 6.6 0 a3.3 3.3 0 1 0 -6.6 0zM454.8 129.91L453.07 129.2L447.23 143.3L448.96 144.01zM444.8 143.65 a3.3 3.3 0 1 0 6.6 0 a3.3 3.3 0 1 0 -6.6 0zM443.05 122.5L441.73 121.18L436.03 126.89L437.34 128.21zM433.38 127.55 a3.3 3.3 0 1 0 6.6 0 a3.3 3.3 0 1 0 -6.6 0zM435.03 111.16L434.32 109.44L422.95 114.15L423.66 115.87zM420 115.01 a3.3 3.3 0 1 0 6.6 0 a3.3 3.3 0 1 0 -6.6 0zM431.97 97.61L431.97 95.75L424.09 95.75L424.09 97.61zM420.79 96.68 a3.3 3.3 0 1 0 6.6 0 a3.3 3.3 0 1 0 -6.6 0zM434.32 83.92L435.03 82.2L425.43 78.22L424.72 79.95zM421.78 79.09 a3.3 3.3 0 1 0 6.6 0 a3.3 3.3 0 1 0 -6.6 0zM441.73 72.18L443.05 70.86L432.81 60.62L431.49 61.94zM428.85 61.28 a3.3 3.3 0 1 0 6.6 0 a3.3 3.3 0 1 0 -6.6 0zM453.07 64.16L454.8 63.45L449.89 51.61L448.17 52.32zM445.73 51.97 a3.3 3.3 0 1 0 6.6 0 a3.3 3.3 0 1 0 -6.6 0zM466.62 61.09L468.48 61.09L468.48 53.95L466.62 53.95zM464.25 53.95 a3.3 3.3 0 1 0 6.6 0 a3.3 3.3 0 1 0 -6.6 0zM480.31 63.45L482.03 64.16L486.32 53.79L484.6 53.08zM482.16 53.44 a3.3 3.3 0 1 0 6.6 0 a3.3 3.3 0 1 0 -6.6 0zM492.06 70.86L493.37 72.18L500.98 64.57L499.66 63.26zM497.02 63.92 a3.3 3.3 0 1 0 6.6 0 a3.3 3.3 0 1 0 -6.6 0zM500.07 82.2L500.79 83.92L510.64 79.84L509.93 78.12zM506.99 78.98 a3.3 3.3 0 1 0 6.6 0 a3.3 3.3 0 1 0 -6.6 0zM431.95 96.68 a35.6 35.6 0 1 0 71.2 0 a35.6 35.6 0 1 0 -71.2 0z" fill="rgba(187, 65, 65, 1)"></path><path d="M500.96 108.98 A34.5968 34.5968 0 0 1 440.24 119.51M440.24 119.51 A71.1936 71.1936 0 0 0 500.96 108.98" fill="#963434" fill-rule="nonzero"></path><path d="M482.3 118.09 a5.7 5.7 0 1 0 11.4 0 a5.7 5.7 0 1 0 -11.4 0zM463.85 112.32 a6.05 6.05 0 1 0 12.1 0 a6.05 6.05 0 1 0 -12.1 0zM463.45 90.43 a7.12 7.12 0 1 0 14.24 0 a7.12 7.12 0 1 0 -14.24 0zM485.4 71.67 a2.85 2.85 0 1 0 5.7 0 a2.85 2.85 0 1 0 -5.7 0zM439.7 81.76 a7.12 7.12 0 1 0 14.24 0 a7.12 7.12 0 1 0 -14.24 0zM438.1 114.55 a6.05 6.05 0 1 0 12.1 0 a6.05 6.05 0 1 0 -12.1 0zM490.67 82.75 a1.78 1.78 0 1 0 3.56 0 a1.78 1.78 0 1 0 -3.56 0zM472.16 74.55 a1.78 1.78 0 1 0 3.56 0 a1.78 1.78 0 1 0 -3.56 0zM482.03 100.15 a3.2 3.2 0 1 0 6.4 0 a3.2 3.2 0 1 0 -6.4 0zM447.76 98.48 a2.49 2.49 0 1 0 4.98 0 a2.49 2.49 0 1 0 -4.98 0z" fill="#963434" fill-rule="nonzero"></path></g><defs><mask id="SvgjsMask1003"><rect width="1440" height="560" fill="#ffffff"></rect></mask></defs></svg>